<svg width="124" height="24" viewBox="0 0 124 24" fill="none" xmlns="http://www.w3.org/2000/svg">
<path d="M8.888 23.352C7.18133 23.352 5.77333 23.1387 4.664 22.712C3.576 22.264 2.712 21.5813 2.072 20.664C1.432 19.7467 0.984 18.584 0.728 17.176C0.493333 15.7467 0.376 14.0507 0.376 12.088C0.376 10.104 0.493333 8.408 0.728 7C0.984 5.57067 1.432 4.39733 2.072 3.48C2.712 2.56267 3.58667 1.88 4.696 1.432C5.82667 0.983999 7.26667 0.759998 9.016 0.759998C9.72 0.759998 10.456 0.802665 11.224 0.887999C11.992 0.973332 12.728 1.08 13.432 1.208C14.1573 1.31466 14.776 1.432 15.288 1.56L15.16 5.08C14.7333 4.99467 14.2 4.92 13.56 4.856C12.92 4.77067 12.2693 4.70667 11.608 4.664C10.9467 4.62133 10.328 4.6 9.752 4.6C8.728 4.6 7.896 4.728 7.256 4.984C6.616 5.24 6.11467 5.66667 5.752 6.264C5.41067 6.86133 5.176 7.64 5.048 8.6C4.92 9.53867 4.856 10.7013 4.856 12.088C4.856 13.4533 4.92 14.616 5.048 15.576C5.176 16.5147 5.41067 17.2827 5.752 17.88C6.09333 18.456 6.584 18.8827 7.224 19.16C7.88533 19.416 8.73867 19.544 9.784 19.544C10.6373 19.544 11.576 19.5013 12.6 19.416C13.6453 19.3093 14.5093 19.2133 15.192 19.128L15.288 22.616C14.776 22.7227 14.168 22.84 13.464 22.968C12.76 23.0747 12.0133 23.16 11.224 23.224C10.4347 23.3093 9.656 23.352 8.888 23.352ZM16.6653 23L22.2333 1.144H29.9453L35.4813 23H31.0653L29.8493 18.584H22.2013L21.0493 23H16.6653ZM22.9053 15.032H29.2093L26.7453 4.728H25.4013L22.9053 15.032ZM40.3025 23V4.888H34.4145V1.144H50.4145V4.888H44.7185V23H40.3025ZM56.327 23.352C54.663 23.352 53.4043 22.936 52.551 22.104C51.719 21.2507 51.303 19.9707 51.303 18.264C51.303 17.0693 51.5163 16.1413 51.943 15.48C52.3697 14.7973 52.999 14.3067 53.831 14.008C54.6843 13.688 55.719 13.496 56.935 13.432L60.839 13.08V12.12C60.839 11.352 60.647 10.8187 60.263 10.52C59.879 10.2 59.3137 10.04 58.567 10.04C57.9697 10.04 57.2763 10.0613 56.487 10.104C55.719 10.1467 54.951 10.2 54.183 10.264C53.4363 10.328 52.7857 10.392 52.231 10.456L52.103 7.448C52.6577 7.32 53.319 7.192 54.087 7.064C54.8763 6.91467 55.6977 6.79733 56.551 6.712C57.4043 6.62667 58.1937 6.584 58.919 6.584C60.2843 6.584 61.4257 6.75467 62.343 7.096C63.2603 7.43733 63.9537 8.00267 64.423 8.792C64.8923 9.56 65.127 10.6053 65.127 11.928V19.256C65.1697 19.5547 65.3297 19.7893 65.607 19.96C65.8843 20.1093 66.2043 20.216 66.567 20.28L66.471 23.224C66.1297 23.224 65.7883 23.224 65.447 23.224C65.127 23.2453 64.8177 23.2453 64.519 23.224C64.2203 23.224 63.9537 23.2027 63.719 23.16C63.2283 23.096 62.8017 22.968 62.439 22.776C62.0977 22.584 61.8203 22.3813 61.607 22.168C61.2657 22.3173 60.807 22.488 60.231 22.68C59.655 22.872 59.0257 23.032 58.343 23.16C57.6817 23.288 57.0097 23.352 56.327 23.352ZM57.351 20.184C57.7563 20.184 58.183 20.1413 58.631 20.056C59.079 19.9707 59.495 19.8747 59.879 19.768C60.2843 19.64 60.6043 19.5227 60.839 19.416V15.736L57.575 16.024C56.871 16.088 56.359 16.3013 56.039 16.664C55.7403 17.0053 55.591 17.496 55.591 18.136C55.591 18.776 55.7297 19.2773 56.007 19.64C56.3057 20.0027 56.7537 20.184 57.351 20.184ZM68.245 23V19.384L75.509 10.712H68.245V6.936H81.109V10.424L73.781 19.224H81.141V23H68.245ZM83.9788 23V6.936H88.2348V23H83.9788ZM83.9788 4.376V0.727999H88.2668V4.376H83.9788ZM91.7913 23V6.936H96.0473V7.96C96.3886 7.74667 96.8046 7.544 97.2953 7.352C97.7859 7.13867 98.2979 6.95733 98.8313 6.808C99.3859 6.65867 99.9193 6.584 100.431 6.584C101.541 6.584 102.458 6.73333 103.183 7.032C103.93 7.30933 104.517 7.768 104.943 8.408C105.37 9.048 105.679 9.89067 105.871 10.936C106.063 11.96 106.159 13.208 106.159 14.68V23H101.871V14.904C101.871 13.7947 101.807 12.9093 101.679 12.248C101.551 11.5653 101.306 11.0747 100.943 10.776C100.581 10.4773 100.047 10.328 99.3433 10.328C98.9593 10.328 98.5539 10.3707 98.1273 10.456C97.7219 10.52 97.3273 10.616 96.9433 10.744C96.5806 10.872 96.2819 11 96.0473 11.128V23H91.7913ZM115.975 23.352C114.204 23.352 112.796 23.0533 111.751 22.456C110.727 21.8587 109.991 20.952 109.543 19.736C109.095 18.52 108.871 16.9947 108.871 15.16C108.871 13.176 109.148 11.5547 109.703 10.296C110.279 9.03733 111.111 8.10933 112.199 7.512C113.287 6.89333 114.631 6.584 116.231 6.584C118.599 6.584 120.38 7.18133 121.575 8.376C122.791 9.57067 123.399 11.4587 123.399 14.04L123.207 16.408H113.159C113.18 17.6027 113.425 18.4987 113.895 19.096C114.364 19.6933 115.175 19.992 116.327 19.992C116.988 19.992 117.713 19.9813 118.503 19.96C119.292 19.9173 120.071 19.8747 120.839 19.832C121.628 19.7893 122.3 19.7467 122.855 19.704L122.951 22.68C122.417 22.7653 121.745 22.8613 120.935 22.968C120.124 23.0747 119.281 23.16 118.407 23.224C117.553 23.3093 116.743 23.352 115.975 23.352ZM113.159 13.688H119.143C119.143 12.2373 118.908 11.224 118.439 10.648C117.991 10.072 117.255 9.784 116.231 9.784C115.548 9.784 114.983 9.912 114.535 10.168C114.087 10.424 113.745 10.84 113.511 11.416C113.276 11.992 113.159 12.7493 113.159 13.688Z" fill="#B72027"/>
</svg>
