<svg width="409" height="149" viewBox="0 0 409 149" fill="none" xmlns="http://www.w3.org/2000/svg">
<path d="M31.2499 112.504C25.9809 112.504 21.634 111.845 18.2091 110.528C14.8501 109.145 12.1827 107.037 10.2068 104.205C8.23097 101.373 6.84786 97.7835 6.05751 93.4365C5.33303 89.0238 4.97078 83.7877 4.97078 77.7284C4.97078 71.6032 5.33303 66.3671 6.05751 62.0202C6.84786 57.6074 8.23097 53.9849 10.2068 51.1529C12.1827 48.3208 14.8831 46.2132 18.3079 44.8301C21.7986 43.447 26.2443 42.7554 31.6451 42.7554C33.8185 42.7554 36.0908 42.8871 38.4618 43.1506C40.8329 43.414 43.1051 43.7433 45.2786 44.1385C47.5179 44.4678 49.4279 44.8301 51.0086 45.2252L50.6134 56.0925C49.2962 55.8291 47.6496 55.5986 45.6738 55.401C43.6979 55.1375 41.6891 54.94 39.6474 54.8082C37.6056 54.6765 35.6956 54.6106 33.9173 54.6106C30.7559 54.6106 28.1873 55.0058 26.2114 55.7962C24.2355 56.5865 22.6878 57.9038 21.5681 59.7479C20.5143 61.5921 19.7898 63.996 19.3947 66.9598C18.9995 69.8578 18.8019 73.4473 18.8019 77.7284C18.8019 81.9436 18.9995 85.5331 19.3947 88.4969C19.7898 91.3948 20.5143 93.7659 21.5681 95.61C22.6219 97.3883 24.1368 98.7055 26.1126 99.5618C28.1544 100.352 30.7889 100.747 34.0161 100.747C36.6506 100.747 39.5486 100.616 42.71 100.352C45.9372 100.023 48.6046 99.7264 50.7122 99.463L51.0086 110.231C49.4279 110.561 47.5508 110.923 45.3774 111.318C43.2039 111.648 40.8987 111.911 38.4618 112.109C36.0249 112.372 33.6209 112.504 31.2499 112.504ZM55.2606 111.417L72.4507 43.9409H96.26L113.351 111.417H99.7178L95.9636 97.7835H72.3519L68.7953 111.417H55.2606ZM74.5254 86.8174H93.9877L86.3806 55.0058H82.2313L74.5254 86.8174ZM128.236 111.417V55.4998H110.058V43.9409H159.455V55.4998H141.869V111.417H128.236ZM178.664 112.405C173.988 112.405 170.431 111.121 167.994 108.552C165.623 105.983 164.438 102.196 164.438 97.1907C164.438 93.8976 164.997 91.2302 166.117 89.1884C167.303 87.1467 169.048 85.5989 171.353 84.5451C173.724 83.4913 176.589 82.8327 179.948 82.5692L194.767 81.0873V77.0368C194.767 73.8095 194.043 71.5373 192.594 70.22C191.145 68.9028 189.037 68.2442 186.271 68.2442C184.559 68.2442 182.55 68.31 180.245 68.4418C178.005 68.5735 175.733 68.7381 173.428 68.9357C171.189 69.1333 169.213 69.3309 167.5 69.5285L167.105 63.2057C168.686 62.8764 170.596 62.5471 172.835 62.2178C175.14 61.8884 177.511 61.625 179.948 61.4274C182.451 61.164 184.723 61.0322 186.765 61.0322C190.585 61.0322 193.713 61.5921 196.15 62.7117C198.587 63.8314 200.366 65.5767 201.485 67.9478C202.671 70.253 203.264 73.2497 203.264 76.938V101.636C203.395 103.02 203.955 104.04 204.943 104.699C205.931 105.292 207.182 105.687 208.697 105.885L208.401 112.405C207.479 112.405 206.557 112.372 205.635 112.306C204.778 112.24 203.955 112.141 203.165 112.01C202.374 111.878 201.65 111.713 200.991 111.516C200.003 111.186 199.114 110.791 198.324 110.33C197.534 109.803 196.776 109.211 196.052 108.552C194.8 109.079 193.22 109.639 191.31 110.231C189.399 110.824 187.358 111.318 185.184 111.713C183.011 112.174 180.837 112.405 178.664 112.405ZM180.146 105.489C181.858 105.489 183.637 105.358 185.481 105.094C187.325 104.765 189.07 104.37 190.717 103.909C192.363 103.448 193.713 103.02 194.767 102.624V87.2125L181.035 88.4969C178.203 88.7603 176.161 89.6165 174.91 91.0655C173.658 92.4486 173.033 94.4245 173.033 96.9931C173.033 99.6276 173.625 101.702 174.811 103.217C176.062 104.732 177.841 105.489 180.146 105.489ZM214.613 111.417V103.909L241.189 69.5285H214.613V62.0202H251.661V69.4297L225.085 103.81H251.661V111.417H214.613ZM262.63 111.417V62.0202H270.929V111.417H262.63ZM262.63 51.548V42.3602H270.929V51.548H262.63ZM284.724 111.417V62.0202H293.022V65.3792C294.142 64.7205 295.525 64.0619 297.172 63.4033C298.884 62.7447 300.662 62.1848 302.506 61.7238C304.416 61.2627 306.228 61.0322 307.94 61.0322C311.365 61.0322 314.164 61.4933 316.337 62.4153C318.577 63.2716 320.289 64.6876 321.475 66.6635C322.726 68.5735 323.582 71.0763 324.043 74.1718C324.57 77.2015 324.834 80.9227 324.834 85.3355V111.417H316.436V85.6318C316.436 81.4825 316.173 78.1565 315.646 75.6537C315.185 73.1509 314.23 71.3397 312.781 70.22C311.398 69.1004 309.224 68.5405 306.261 68.5405C304.68 68.5405 303.033 68.7381 301.321 69.1333C299.674 69.4626 298.127 69.8907 296.678 70.4176C295.229 70.9445 294.01 71.4714 293.022 71.9983V111.417H284.724ZM355.859 112.405C350.853 112.405 346.902 111.45 344.004 109.54C341.106 107.63 338.998 104.798 337.681 101.044C336.429 97.2895 335.804 92.6133 335.804 87.015C335.804 80.8239 336.66 75.8183 338.372 71.9983C340.085 68.1783 342.489 65.4121 345.584 63.6997C348.746 61.9214 352.5 61.0322 356.847 61.0322C363.565 61.0322 368.603 62.8764 371.962 66.5647C375.387 70.1871 377.099 76.0159 377.099 84.0512L376.704 90.1764H344.399C344.465 95.0502 345.387 98.7714 347.165 101.34C348.943 103.843 352.171 105.094 356.847 105.094C358.691 105.094 360.733 105.061 362.972 104.995C365.211 104.864 367.418 104.732 369.591 104.6C371.83 104.469 373.708 104.337 375.222 104.205L375.42 110.725C373.839 110.989 371.896 111.252 369.591 111.516C367.286 111.779 364.915 111.977 362.478 112.109C360.107 112.306 357.901 112.405 355.859 112.405ZM344.399 83.5572H368.603C368.603 77.7613 367.681 73.7107 365.837 71.4056C363.993 69.0345 360.996 67.849 356.847 67.849C354.146 67.849 351.874 68.3759 350.03 69.4297C348.252 70.4835 346.869 72.163 345.881 74.4682C344.893 76.7734 344.399 79.803 344.399 83.5572Z" fill="#B72027"/>
</svg>
