<svg width="29" height="188" viewBox="0 0 29 188" fill="none" xmlns="http://www.w3.org/2000/svg">
<path d="M17 3.25122C17 1.87051 15.8807 0.751221 14.5 0.751221C13.1193 0.751221 12 1.87051 12 3.25122L17 3.25122ZM14.5 187.685L28.9338 173.251L14.5 158.817L0.0662432 173.251L14.5 187.685ZM12 3.25122L12 7.97344L17 7.97344V3.25122L12 3.25122ZM12 17.4179L12 26.8623H17L17 17.4179H12ZM12 36.3068L12 45.7512H17L17 36.3068H12ZM12 55.1957L12 64.6401H17V55.1957H12ZM12 74.0845L12 83.529H17L17 74.0845H12ZM12 92.9734L12 102.418H17L17 92.9734H12ZM12 111.862L12 121.307H17V111.862H12ZM12 130.751L12 140.196H17L17 130.751H12ZM12 149.64L12 159.085H17L17 149.64H12ZM12 168.529L12 173.251H17V168.529H12Z" fill="#B72027"/>
</svg>
