<svg width="64" height="65" viewBox="0 0 64 65" fill="none" xmlns="http://www.w3.org/2000/svg">
<path d="M23.002 2.5C11.3937 2.50001 2 11.9158 2 23.502C2 33.4978 9.04238 42.018 18.668 44.041C18.2519 44.7698 17.9961 45.6006 17.9961 46.4961C17.9961 47.7346 18.4491 48.8671 19.1992 49.7441C18.2905 50.233 17.5136 50.874 16.8594 51.6621C16.2567 50.7409 15.462 49.9823 14.5039 49.4336C14.823 48.8582 15 48.2016 15 47.5C15 45.3027 13.2266 43.5 11.002 43.5C8.77732 43.5 7 45.3027 7 47.5C7 48.2087 7.17442 48.856 7.5 49.4355C5.42535 50.6225 4 52.8922 4 55.5019V56.498C4 58.7317 5.79933 60.5 7.99805 60.5H14C14.5603 60.5 15.0791 60.3932 15.5664 60.1836C16.3356 61.5715 17.8098 62.5 19.498 62.5H26.502C28.1902 62.5 29.6644 61.5676 30.4336 60.1797C30.9209 60.3892 31.4396 60.5 32 60.5H38.0019C40.2007 60.5 42 58.7317 42 56.498V55.5019C42 52.8922 40.6037 50.6351 38.5 49.4316C38.8256 48.8521 38.998 48.2087 38.998 47.5C38.998 45.3027 37.2227 43.5 34.998 43.5C32.7734 43.5 31 45.3027 31 47.5C31 48.2016 31.1809 48.8582 31.5 49.4336C30.5419 49.9823 29.7433 50.7409 29.1406 51.6621C28.4864 50.874 27.7134 50.233 26.8047 49.7441C27.5532 48.8671 28 47.7346 28 46.4961C28 45.6012 27.7445 44.7715 27.3301 44.043C36.6292 42.0869 43.5045 34.0571 43.957 24.498H44.4863L47.0293 28.0781C47.2161 28.3417 47.5187 28.4989 47.8418 28.5H55.0019C55.8232 28.4936 56.2869 27.5546 55.793 26.8984L53.9746 24.498H55.0019V22.498H54.0293L55.8066 20.0918C56.2963 19.4313 55.824 18.495 55.0019 18.4961H47.8418C47.5187 18.4972 47.2161 18.6543 47.0293 18.918L44.4863 22.498H43.9785C43.4546 11.3768 34.273 2.49999 23.002 2.5ZM23.002 4.50195C33.1372 4.50195 41.4274 12.4636 41.9531 22.498C37.9532 22.5013 33.9483 22.498 29.9492 22.498C28.586 22.4678 28.586 24.5283 29.9492 24.498H31.9336C31.3789 28.7382 27.3845 32.502 23 32.502C18.2749 32.502 13.9912 28.1333 13.9902 23.5039C13.9891 18.8732 18.2739 14.498 23 14.498C26.6743 14.498 30.0652 17.1468 31.3965 20.5H38.6816C37.2774 13.1098 30.8216 7.49805 23.002 7.49805C14.1496 7.49805 6.99805 14.6772 6.99805 23.502C6.99804 32.3267 14.1538 39.498 23.002 39.498C31.5131 39.498 38.4312 32.8578 38.9473 24.498H41.957C41.485 33.4965 34.702 41.004 25.6953 42.2969C24.9175 41.7963 23.9967 41.498 23.002 41.498C22.0103 41.498 21.092 41.7952 20.3145 42.293C10.9662 40.9601 4.00195 32.9517 4.00195 23.502C4.00195 12.9967 12.5289 4.50195 23.002 4.50195ZM22.9863 16.4297C22.4309 16.4357 21.9877 16.8939 21.998 17.4492V17.5H20.4922C19.0472 17.5 17.9961 18.7661 17.9961 20.1719V21.8262C17.9961 23.2671 19.0638 24.498 20.4922 24.498H21.998V27.5039H20.4922C20.2661 27.5039 19.998 27.2483 19.998 26.8242C19.998 25.4906 17.9961 25.4906 17.9961 26.8242C17.9961 28.2612 19.0638 29.5039 20.4922 29.5039H21.998C21.998 30.8376 23.998 30.8376 23.998 29.5039H25.5039C26.9323 29.5039 28 28.2613 28 26.8242V25.1699C28 23.7642 26.9519 22.498 25.5039 22.498H23.998V19.502H25.5039C25.73 19.502 25.998 19.7244 25.998 20.1719C25.998 21.5055 28 21.5055 28 20.1719C28 18.7661 26.9324 17.5 25.5039 17.5H23.998V17.4492C24.0086 16.8852 23.5504 16.4233 22.9863 16.4297ZM20.4922 19.502H21.998V22.498H20.4922C20.2661 22.498 19.998 22.2424 19.998 21.8262V20.1719C19.998 19.7576 20.2662 19.502 20.4922 19.502ZM48.3594 20.498H53.0176L51.5371 22.498H46.9375L48.3594 20.498ZM57.1875 22.6133L56.9805 23.6855L56.8027 24.582C56.8027 24.582 57.1832 24.6588 57.5195 24.8008C57.9788 24.9947 58.2656 25.1973 58.2656 25.1973L59.3906 23.5371C59.3906 23.5371 58.73 23.1205 58.3379 22.9648C57.9572 22.8026 57.541 22.6932 57.1875 22.6133ZM23.998 24.498H25.5039C25.7066 24.498 25.998 24.7225 25.998 25.1699V26.8242C25.998 27.2718 25.7105 27.5039 25.5039 27.5039H23.998V24.498ZM46.9336 24.498H51.4551L52.9805 26.498H48.3594L46.9336 24.498ZM61.0508 25.2402L59.3711 26.334C59.3711 26.334 59.53 26.577 59.6973 26.9609C59.8645 27.3448 59.9453 27.8105 59.9453 27.8105L61.916 27.4746C61.8299 27.0697 61.7711 26.7657 61.5762 26.2676C61.431 25.8757 61.0508 25.2402 61.0508 25.2402ZM59.9004 29.3945C59.9004 29.3945 59.7896 29.8429 59.6465 30.1602C59.4977 30.49 59.2422 30.8535 59.2422 30.8535L60.8652 32.0234C60.8652 32.0234 61.2547 31.4962 61.5019 30.9121C61.7492 30.328 61.8476 29.8477 61.8476 29.8477L59.9004 29.3945ZM58.0781 31.9258C58.0781 31.9258 57.6699 32.1584 57.3379 32.2773C57.0059 32.3963 56.5684 32.4687 56.5684 32.4687L56.8574 34.4395C56.8574 34.4395 57.4501 34.361 58.0137 34.1621C58.5772 33.9632 59.1016 33.6445 59.1016 33.6445L58.0781 31.9258ZM48.7148 32.5V34.5019H50.7148V32.5H48.7148ZM52.7246 32.5V34.5019H54.7266V32.5H52.7246ZM46.4746 32.6934C46.4746 32.6934 45.9863 32.8028 45.3223 33.127C44.8296 33.3674 44.3379 33.7402 44.3379 33.7402L45.5566 35.3262C45.9887 34.9923 46.4321 34.7802 46.9824 34.6289L46.4746 32.6934ZM42.7715 35.541C42.3588 36.3347 42.1814 36.8363 42.0332 37.8144L44.0293 38.041C44.1359 37.2842 44.289 36.9646 44.5117 36.5195L42.7715 35.541ZM44.1562 39.625L42.2363 40.1758C42.453 40.9578 42.8473 41.6801 43.3477 42.2949L44.9023 41.0352C44.5352 40.5853 44.2969 40.0807 44.1562 39.625ZM46.125 42.0371L45.1855 43.8008C45.9052 44.1803 46.6545 44.4196 47.4824 44.4746L47.6465 42.4844C47.1087 42.4449 46.5624 42.2692 46.125 42.0371ZM49.5664 42.5039V44.5039H51.5664V42.5039H49.5664ZM53.5664 42.5039V44.5039H55.5684V42.5039H53.5664ZM57.8379 42.7754L57.2363 44.6914C57.692 44.8485 58.0725 45.0138 58.625 45.4746L59.9277 43.9512C59.2849 43.3922 58.5736 43.0301 57.8379 42.7754ZM61.3809 45.8379C61.2378 45.9226 60.2597 46.3925 59.5918 46.7266C59.8314 47.2204 59.9404 47.6459 59.9863 48.2832L62 48.1523C61.9605 47.2132 61.6042 46.2598 61.3809 45.8379ZM59.7715 49.8379C59.6358 50.2091 59.4532 50.6474 58.9531 51.2051L60.4297 52.5527C61.0811 51.8383 61.3762 51.2594 61.6562 50.5098C60.9395 50.2545 60.2491 50.0039 59.7715 49.8379ZM32.9531 50.9336C33.5472 51.285 34.255 51.5019 34.998 51.5019C35.7458 51.5019 36.4499 51.295 37.0469 50.9394C38.7987 51.7148 40 53.4539 40 55.5019V56.498C40 57.5913 39.1278 58.5 38.0019 58.5H32C31.6177 58.5 31.294 58.4068 30.9961 58.2285C30.9999 58.1504 31 58.0616 31 57.9824V56.8164C31 55.6947 30.7674 54.6083 30.3574 53.6406C30.8384 52.4205 31.7969 51.4456 32.9531 50.9336ZM8.95312 50.9356C9.55001 51.2912 10.2542 51.502 11.002 51.502C11.745 51.502 12.4489 51.289 13.043 50.9375C14.2383 51.4669 15.1737 52.4454 15.6465 53.6446C15.2287 54.6082 15 55.6947 15 56.8164V57.9824C15 58.0616 15.0037 58.1504 15.0078 58.2285C14.71 58.4068 14.3823 58.5 14 58.5H7.99805C6.87222 58.5 6 57.5913 6 56.498V55.5019C6 53.4539 7.23405 51.6965 8.95312 50.9356ZM24.9414 51.1075C27.2839 51.8963 29 54.1466 29 56.8164V57.9824C29 59.3674 27.902 60.5 26.502 60.5H19.498C18.098 60.5 17 59.3674 17 57.9824V56.8164C17 54.1789 18.6853 51.9102 21.0605 51.1113C21.6497 51.3554 22.3218 51.5019 23.002 51.5019C23.6819 51.5019 24.3531 51.3514 24.9414 51.1075ZM57.6777 52.1309C57.1138 52.3921 56.6253 52.4769 56.1133 52.4942C56.1535 53.1801 56.1615 53.7324 56.1894 54.4981C57.0992 54.4807 57.9186 54.2216 58.5176 53.9551L57.6777 52.1309ZM44.1387 52.4981V54.4981H46.1387V52.4981H44.1387ZM48.1387 52.4981V54.4981H50.1406V52.4981H48.1387ZM52.1406 52.4981V54.4981H54.1406V52.4981H52.1406Z" fill="#FBE9EA"/>
</svg>
