<svg width="63" height="63" viewBox="0 0 63 63" fill="none" xmlns="http://www.w3.org/2000/svg">
<rect width="63" height="63" fill="#1E1E1E"/>
<path d="M-10753 -2812C-10753 -2813.1 -10752.1 -2814 -10751 -2814H6745C6746.11 -2814 6747 -2813.1 6747 -2812V5815C6747 5816.1 6746.11 5817 6745 5817H-10751C-10752.1 5817 -10753 5816.1 -10753 5815V-2812Z" fill="#444444"/>
<path d="M-10751 -2813H6745V-2815H-10751V-2813ZM6746 -2812V5815H6748V-2812H6746ZM6745 5816H-10751V5818H6745V5816ZM-10752 5815V-2812H-10754V5815H-10752ZM-10751 5816C-10751.6 5816 -10752 5815.55 -10752 5815H-10754C-10754 5816.66 -10752.7 5818 -10751 5818V5816ZM6746 5815C6746 5815.55 6745.55 5816 6745 5816V5818C6746.66 5818 6748 5816.66 6748 5815H6746ZM6745 -2813C6745.55 -2813 6746 -2812.55 6746 -2812H6748C6748 -2813.66 6746.66 -2815 6745 -2815V-2813ZM-10751 -2815C-10752.7 -2815 -10754 -2813.66 -10754 -2812H-10752C-10752 -2812.55 -10751.6 -2813 -10751 -2813V-2815Z" fill="white" fill-opacity="0.1"/>
<g clip-path="url(#clip0_3_7)">
<rect width="1440" height="2236" transform="translate(-1152 -1275)" fill="white"/>
<rect x="-20.5" y="-21" width="105" height="105" rx="52.5" fill="#83161A"/>
<path d="M23.6258 4.16309L31.5008 12.0381L39.3758 4.16309L62.7751 27.5623L31.5008 58.8366L0.226562 27.5623L23.6258 4.16309ZM27.7891 15.7498L23.6258 11.5866L7.65006 27.5623L31.5008 51.4131L34.0051 48.9088L27.7891 42.6902L31.5008 38.9811L37.7168 45.1997L40.2237 42.6928L34.0051 36.4768L37.7168 32.7651L43.9354 38.9811L47.4766 35.44L39.3758 27.3366L31.5008 35.2116L19.9141 23.6248L27.7891 15.7498ZM51.1883 31.7256L55.3516 27.5623L39.3758 11.5866L27.3376 23.6248L31.5008 27.7881L39.3758 19.9131L51.1883 31.7256Z" fill="#FBE9EA"/>
</g>
<defs>
<clipPath id="clip0_3_7">
<rect width="1440" height="2236" fill="white" transform="translate(-1152 -1275)"/>
</clipPath>
</defs>
</svg>
