<svg width="56" height="55" viewBox="0 0 56 55" fill="none" xmlns="http://www.w3.org/2000/svg">
<g clip-path="url(#clip0_260_7075)">
<path fill-rule="evenodd" clip-rule="evenodd" d="M45.6192 1.48886C45.5354 1.15112 45.3634 0.841702 45.1207 0.592258C44.8781 0.342814 44.5736 0.162302 44.2383 0.0691875C43.903 -0.0239265 43.549 -0.0262993 43.2125 0.0623118C42.876 0.150923 42.569 0.327337 42.3231 0.573506L34.466 8.43065C34.2263 8.67078 34.053 8.96887 33.9628 9.29589C33.8726 9.62291 33.8687 9.96771 33.9513 10.2967L35.3656 15.9696C35.347 15.9877 35.3287 16.006 35.3106 16.0246L25.9174 25.4178C25.3969 25.9763 25.1136 26.7151 25.1271 27.4784C25.1405 28.2417 25.4497 28.97 25.9896 29.5099C26.5294 30.0497 27.2577 30.3589 28.021 30.3724C28.7844 30.3859 29.5231 30.1025 30.0817 29.5821L39.4827 20.1928C39.5013 20.1734 39.5197 20.1537 39.5377 20.1339L45.2067 21.5521C45.5357 21.6347 45.8805 21.6308 46.2075 21.5406C46.5345 21.4504 46.8326 21.277 47.0727 21.0374L54.9299 13.1803C55.1771 12.9344 55.3544 12.6272 55.4436 12.2902C55.5328 11.9532 55.5307 11.5985 55.4375 11.2625C55.3443 10.9266 55.1634 10.6215 54.9133 10.3786C54.6633 10.1357 54.353 9.96368 54.0145 9.88029L47.3006 8.20672L45.6192 1.48886ZM29.2449 2.98172C29.2989 3.76103 29.0411 4.52988 28.5284 5.11923C28.0157 5.70858 27.2899 6.0702 26.5106 6.12458C22.406 6.40903 18.4694 7.86584 15.1684 10.3219C11.8675 12.778 9.34101 16.1301 7.88922 19.9798C6.43742 23.8296 6.12133 28.0153 6.97851 32.0394C7.83569 36.0636 9.8301 39.757 12.7248 42.681C15.6194 45.6049 19.2926 47.6364 23.3079 48.5341C27.3233 49.4317 31.5119 49.1578 35.3761 47.7448C39.2403 46.3318 42.6176 43.8393 45.1068 40.5632C47.596 37.2872 49.0923 33.3654 49.4181 29.2639C49.4801 28.4845 49.8491 27.7617 50.4441 27.2544C51.039 26.7472 51.8111 26.497 52.5904 26.559C53.3698 26.621 54.0926 26.9901 54.5998 27.585C55.1071 28.1799 55.3572 28.952 55.2952 29.7314C54.8795 34.9572 52.9724 39.9539 49.8004 44.1278C46.6284 48.3016 42.325 51.4772 37.4013 53.2772C32.4777 55.0773 27.1408 55.4261 22.0247 54.2822C16.9087 53.1384 12.2285 50.55 8.54027 46.8245C4.85201 43.099 2.31071 38.3931 1.2183 33.2658C0.125886 28.1385 0.528274 22.8054 2.37766 17.9001C4.22704 12.9947 7.44568 8.7234 11.6512 5.59351C15.8567 2.46362 20.8723 0.60675 26.102 0.243506C26.8813 0.189532 27.6502 0.447243 28.2395 0.959981C28.8289 1.47272 29.1905 2.20244 29.2449 2.98172ZM26.6049 15.9421C26.7461 16.3024 26.8149 16.6871 26.8073 17.074C26.7998 17.461 26.7162 17.8426 26.5611 18.1972C26.4061 18.5519 26.1827 18.8724 25.9037 19.1407C25.6247 19.4089 25.2956 19.6196 24.9352 19.7606C23.6468 20.266 22.5047 21.0845 21.612 22.1421C20.7194 23.1997 20.1043 24.4631 19.8225 25.8181C19.5407 27.1731 19.601 28.5769 19.9979 29.9028C20.3948 31.2286 21.1159 32.4346 22.096 33.4118C23.076 34.389 24.2841 35.1066 25.6111 35.4997C26.9381 35.8927 28.3421 35.9489 29.6963 35.6632C31.0504 35.3774 32.312 34.7587 33.367 33.8629C34.422 32.9672 35.2372 31.8227 35.7388 30.5328C35.8791 30.1722 36.0891 29.8427 36.3568 29.5633C36.6244 29.2838 36.9445 29.0598 37.2987 28.904C37.6529 28.7482 38.0344 28.6638 38.4212 28.6554C38.8081 28.647 39.1928 28.715 39.5535 28.8553C39.9141 28.9956 40.2435 29.2056 40.523 29.4732C40.8025 29.7409 41.0265 30.061 41.1822 30.4152C41.338 30.7694 41.4225 31.1508 41.4308 31.5377C41.4392 31.9246 41.3713 32.3093 41.231 32.6699C40.3741 34.8726 38.9819 36.827 37.18 38.3565C35.3782 39.8859 33.2235 40.9422 30.9109 41.4298C28.5983 41.9174 26.2006 41.8209 23.9347 41.1491C21.6687 40.4774 19.6059 39.2514 17.9327 37.5822C16.2595 35.9129 15.0287 33.853 14.3516 31.5886C13.6745 29.3242 13.5725 26.9268 14.0546 24.613C14.5368 22.2993 15.588 20.1422 17.1132 18.3367C18.6384 16.5313 20.5896 15.1344 22.7902 14.2724C23.5175 13.9885 24.3278 14.0049 25.043 14.318C25.7583 14.631 26.32 15.2152 26.6049 15.9421Z" fill="#FBE9EA"/>
</g>
<defs>
<clipPath id="clip0_260_7075">
<rect width="55" height="55" fill="white" transform="translate(0.5)"/>
</clipPath>
</defs>
</svg>
